<!--?xml version="1.0" standalone="no"?-->
              <svg id="sw-js-blob-svg" viewBox="0 0 100 100" xmlns="http://www.w3.org/2000/svg" version="1.1">
                    <defs> 
                        <linearGradient id="sw-gradient" x1="0" x2="1" y1="1" y2="0">
                            <stop id="stop1" stop-color="rgba(255, 226.649, 10.079, 0.68)" offset="0%"></stop>
                            <stop id="stop2" stop-color="rgba(0, 0, 0, 1)" offset="100%"></stop>
                        </linearGradient>
                    </defs>
                <path fill="url(#sw-gradient)" d="M22.3,-37C29.4,-34.6,35.9,-29.6,39.7,-22.9C43.6,-16.3,44.7,-8.2,44.3,-0.3C43.8,7.6,41.8,15.3,37.4,21.1C33.1,26.8,26.6,30.8,20,35.1C13.4,39.5,6.7,44.2,-0.8,45.6C-8.2,46.9,-16.4,44.8,-22.6,40.2C-28.8,35.6,-32.9,28.5,-35.4,21.3C-38,14.2,-38.9,7.1,-38.5,0.2C-38.1,-6.6,-36.2,-13.2,-33.6,-20.2C-30.9,-27.1,-27.5,-34.3,-21.7,-37.5C-16,-40.7,-8,-39.9,-0.2,-39.5C7.6,-39.2,15.3,-39.5,22.3,-37Z" width="100%" height="100%" transform="translate(50 50)" stroke-width="0" style="transition: all 0.3s ease 0s;" stroke="url(#sw-gradient)"></path>
              </svg>