<!--?xml version="1.0" standalone="no"?-->
              <svg id="sw-js-blob-svg" viewBox="0 0 100 100" xmlns="http://www.w3.org/2000/svg" version="1.1">
                    <defs> 
                        <linearGradient id="sw-gradient" x1="0" x2="1" y1="1" y2="0">
                            <stop id="stop1" stop-color="rgba(255, 226.649, 10.079, 0.68)" offset="0%"></stop>
                            <stop id="stop2" stop-color="rgba(0, 0, 0, 1)" offset="100%"></stop>
                        </linearGradient>
                    </defs>
                <path fill="url(#sw-gradient)" d="M21.5,-37C27.1,-34.1,30.2,-26.7,32.4,-19.7C34.6,-12.8,36,-6.4,34.7,-0.8C33.4,4.9,29.3,9.7,25.5,14C21.8,18.2,18.3,21.9,14.1,24.6C9.8,27.3,4.9,29,-0.2,29.4C-5.4,29.9,-10.8,29,-17.3,27.6C-23.7,26.2,-31.2,24.3,-32.5,19.6C-33.9,14.9,-29,7.4,-28.8,0.1C-28.6,-7.2,-33,-14.4,-33,-21.4C-33,-28.4,-28.7,-35.2,-22.4,-37.7C-16.2,-40.2,-8.1,-38.3,0,-38.3C8,-38.2,16,-39.9,21.5,-37Z" width="100%" height="100%" transform="translate(50 50)" stroke-width="0" style="transition: all 0.3s ease 0s;" stroke="url(#sw-gradient)"></path>
              </svg>