<!--?xml version="1.0" standalone="no"?-->
              <svg id="sw-js-blob-svg" viewBox="0 0 100 100" xmlns="http://www.w3.org/2000/svg" version="1.1">
                    <defs> 
                        <linearGradient id="sw-gradient" x1="0" x2="1" y1="1" y2="0">
                            <stop id="stop1" stop-color="rgba(255, 226.649, 10.079, 0.68)" offset="0%"></stop>
                            <stop id="stop2" stop-color="rgba(0, 0, 0, 1)" offset="100%"></stop>
                        </linearGradient>
                    </defs>
                <path fill="url(#sw-gradient)" d="M17.1,-32.2C21.4,-27.1,23.7,-21,27.3,-15.5C31,-10,36,-5,36.7,0.4C37.3,5.7,33.5,11.5,29.2,15.9C24.9,20.3,20.1,23.4,15.2,27C10.2,30.7,5.1,34.9,-1.2,36.9C-7.4,38.9,-14.8,38.7,-19.4,34.9C-24,31,-25.6,23.4,-29.5,16.9C-33.4,10.5,-39.4,5.3,-41.2,-1C-43,-7.3,-40.6,-14.7,-36.3,-20.4C-32,-26.1,-25.9,-30.1,-19.5,-34C-13.1,-37.9,-6.6,-41.7,-0.1,-41.5C6.4,-41.3,12.8,-37.2,17.1,-32.2Z" width="100%" height="100%" transform="translate(50 50)" stroke-width="0" style="transition: all 0.3s ease 0s;" stroke="url(#sw-gradient)"></path>
              </svg>