<!--?xml version="1.0" standalone="no"?-->
              <svg id="sw-js-blob-svg" viewBox="0 0 100 100" xmlns="http://www.w3.org/2000/svg" version="1.1">
                    <defs> 
                        <linearGradient id="sw-gradient" x1="0" x2="1" y1="1" y2="0">
                            <stop id="stop1" stop-color="rgba(255, 226.649, 10.079, 0.68)" offset="0%"></stop>
                            <stop id="stop2" stop-color="rgba(0, 0, 0, 1)" offset="100%"></stop>
                        </linearGradient>
                    </defs>
                <path fill="url(#sw-gradient)" d="M18.5,-31.9C24.1,-28.9,28.7,-24,33.3,-18.4C38,-12.8,42.8,-6.4,42.7,0C42.6,6.3,37.8,12.7,33,18.1C28.2,23.6,23.5,28.1,18.1,31.9C12.6,35.7,6.3,38.7,-0.1,38.8C-6.5,39,-13,36.4,-19.2,33.1C-25.4,29.7,-31.4,25.6,-35.4,20C-39.4,14.4,-41.5,7.2,-40.8,0.4C-40.1,-6.4,-36.7,-12.8,-32.8,-18.7C-29,-24.6,-24.7,-30,-19.2,-33.1C-13.7,-36.2,-6.8,-36.9,-0.2,-36.6C6.5,-36.3,13,-35,18.5,-31.9Z" width="100%" height="100%" transform="translate(50 50)" stroke-width="0" style="transition: all 0.3s ease 0s;" stroke="url(#sw-gradient)"></path>
              </svg>